<svg width="48" height="48" viewBox="0 0 48 48" fill="none" xmlns="http://www.w3.org/2000/svg">
<path d="M24 0C10.6909 0 0 10.6909 0 24C0 37.3091 10.6909 48 24 48C37.3091 48 48 37.3091 48 24C48 10.6909 37.3091 0 24 0ZM16.6909 19.9636L18.2182 18.4364C18.4364 18.2182 18.6545 18.1091 18.9818 18.1091C19.3091 18.1091 19.5273 18.2182 19.7455 18.4364L20.8364 19.5273C21.1636 19.8545 21.8182 19.6364 21.8182 19.0909V12C21.8182 11.3455 22.2545 10.9091 22.9091 10.9091H25.0909C25.7455 10.9091 26.1818 11.3455 26.1818 12V19.2C26.1818 19.6364 26.7273 19.9636 27.1636 19.6364L28.2545 18.5455C28.4727 18.3273 28.6909 18.2182 29.0182 18.2182C29.3455 18.2182 29.5636 18.3273 29.7818 18.5455L31.3091 20.0727C31.5273 20.2909 31.6364 20.5091 31.6364 20.8364C31.6364 21.1636 31.5273 21.3818 31.3091 21.6L24.7636 28.1455C24.5455 28.3636 24.2182 28.4727 24 28.4727C23.7818 28.4727 23.4545 28.3636 23.2364 28.1455L16.6909 21.6C16.4727 21.3818 16.3636 21.1636 16.3636 20.8364C16.3636 20.4 16.4727 20.1818 16.6909 19.9636ZM38.1818 36C38.1818 36.6545 37.7455 37.0909 37.0909 37.0909H10.9091C10.2545 37.0909 9.81818 36.6545 9.81818 36V29.4545C9.81818 28.8 10.2545 28.3636 10.9091 28.3636H13.0909C13.7455 28.3636 14.1818 28.8 14.1818 29.4545V32.1818C14.1818 32.5091 14.4 32.7273 14.7273 32.7273H33.2727C33.6 32.7273 33.8182 32.5091 33.8182 32.1818V29.4545C33.8182 28.8 34.2545 28.3636 34.9091 28.3636H37.0909C37.7455 28.3636 38.1818 28.8 38.1818 29.4545V36Z" fill="#FF008E"/>
</svg>
