<svg width="132" height="25" viewBox="0 0 132 25" fill="none" xmlns="http://www.w3.org/2000/svg">
<path d="M44.4326 12.9248C44.4326 14.3877 44.1797 15.6729 43.6738 16.7803C43.168 17.8809 42.4434 18.7285 41.5 19.3232C40.5635 19.9111 39.4834 20.2051 38.2598 20.2051C37.0498 20.2051 35.9697 19.9111 35.0195 19.3232C34.0762 18.7285 33.3447 17.8843 32.8252 16.7905C32.3125 15.6968 32.0527 14.4355 32.0459 13.0068V12.166C32.0459 10.71 32.3022 9.4248 32.8149 8.31055C33.3345 7.19629 34.0625 6.34521 34.999 5.75732C35.9424 5.1626 37.0225 4.86523 38.2393 4.86523C39.4561 4.86523 40.5327 5.15918 41.4692 5.74707C42.4126 6.32813 43.1406 7.16895 43.6533 8.26953C44.166 9.36328 44.4258 10.6382 44.4326 12.0942V12.9248ZM41.8384 12.1455C41.8384 10.4912 41.5239 9.22314 40.895 8.34131C40.2729 7.45947 39.3877 7.01855 38.2393 7.01855C37.1182 7.01855 36.2397 7.45947 35.604 8.34131C34.9751 9.21631 34.6538 10.457 34.6401 12.0635V12.9248C34.6401 14.5654 34.958 15.8335 35.5938 16.729C36.2363 17.6245 37.125 18.0723 38.2598 18.0723C39.4082 18.0723 40.29 17.6348 40.9053 16.7598C41.5273 15.8848 41.8384 14.6064 41.8384 12.9248V12.1455ZM49.1187 8.90527L49.1904 10.064C49.9697 9.15479 51.0361 8.7002 52.3896 8.7002C53.873 8.7002 54.8882 9.26758 55.4351 10.4023C56.2417 9.26758 57.3765 8.7002 58.8394 8.7002C60.063 8.7002 60.9722 9.03857 61.5669 9.71533C62.1685 10.3921 62.4761 11.3901 62.4897 12.7095V20H59.998V12.7812C59.998 12.0771 59.8442 11.561 59.5366 11.2329C59.229 10.9048 58.7197 10.7407 58.0088 10.7407C57.4414 10.7407 56.9766 10.8945 56.6143 11.2021C56.2588 11.5029 56.0093 11.8994 55.8657 12.3916L55.876 20H53.3843V12.6992C53.3501 11.3936 52.6836 10.7407 51.3848 10.7407C50.3867 10.7407 49.6792 11.1475 49.2622 11.9609V20H46.7705V8.90527H49.1187ZM67.3604 8.90527L67.4321 10.187C68.2524 9.1958 69.3291 8.7002 70.6621 8.7002C72.9727 8.7002 74.1484 10.0229 74.1895 12.6685V20H71.6978V12.812C71.6978 12.1079 71.5439 11.5884 71.2363 11.2534C70.9355 10.9116 70.4399 10.7407 69.7495 10.7407C68.7446 10.7407 67.9961 11.1953 67.5039 12.1045V20H65.0122V8.90527H67.3604ZM79.3882 20H76.8965V8.90527H79.3882V20ZM76.7427 6.02393C76.7427 5.64111 76.8623 5.32324 77.1016 5.07031C77.3477 4.81738 77.6963 4.69092 78.1475 4.69092C78.5986 4.69092 78.9473 4.81738 79.1934 5.07031C79.4395 5.32324 79.5625 5.64111 79.5625 6.02393C79.5625 6.3999 79.4395 6.71436 79.1934 6.96729C78.9473 7.21338 78.5986 7.33643 78.1475 7.33643C77.6963 7.33643 77.3477 7.21338 77.1016 6.96729C76.8623 6.71436 76.7427 6.3999 76.7427 6.02393ZM86.0942 12.5557L88.2065 8.90527H90.9751L87.5811 14.3706L91.0879 20H88.3398L86.125 16.2061L83.9204 20H81.1519L84.6587 14.3706L81.2749 8.90527H84.0229L86.0942 12.5557Z" fill="#09090A"/>
<path d="M104.869 20H101.793L95.8047 10.1768V20H92.7285V5.07031H95.8047L101.803 14.9141V5.07031H104.869V20ZM116.538 13.5298H110.632V17.5288H117.563V20H107.556V5.07031H117.543V7.56201H110.632V11.1201H116.538V13.5298ZM130.812 7.56201H126.238V20H123.162V7.56201H118.65V5.07031H130.812V7.56201Z" fill="#FF008E"/>
<path d="M15.6944 15.4894C15.5737 15.3585 15.4525 15.2267 15.3303 15.0936C15.2702 15.0263 15.2056 14.9625 15.1396 14.9C15.0743 14.8374 15.0083 14.7737 14.9425 14.71C14.6797 14.4564 14.4128 14.199 14.1443 13.9397C14.0131 13.8062 13.8721 13.6855 13.7307 13.5628C13.5891 13.44 13.4492 13.3172 13.3076 13.1931C13.1666 13.0703 13.0237 12.9466 12.8829 12.8227C12.8105 12.7612 12.7428 12.6984 12.6682 12.6384L12.4412 12.4623C12.3219 12.3694 12.2012 12.278 12.082 12.1854C11.9151 12.2963 11.7159 12.3616 11.5012 12.3616C11.4569 12.3616 11.4125 12.358 11.368 12.3524C11.2191 12.6579 11.0837 12.9629 10.94 13.2675C10.848 13.4565 10.7685 13.6532 10.687 13.8489L10.4428 14.4364C10.3604 14.632 10.2934 14.8329 10.2166 15.031L9.99184 15.6262L9.7869 16.2301C9.72067 16.4303 9.6452 16.6295 9.58975 16.8345L9.40905 17.445L9.31534 17.7496L9.23449 18.0581C9.1518 18.373 9.06527 18.6872 8.99111 19.003C9.08866 19.0482 9.1765 19.1077 9.25403 19.1786C9.30156 19.1467 9.34703 19.1155 9.39395 19.0842C9.64534 18.927 9.90264 18.7673 10.1635 18.6035C10.6929 18.2887 11.2455 17.9724 11.8268 17.6873C11.9721 17.6144 12.1169 17.5415 12.2629 17.4671C12.4097 17.3988 12.5583 17.3304 12.7078 17.261C13.0052 17.1265 13.3032 16.9874 13.6113 16.8692C13.917 16.7501 14.2182 16.6202 14.5286 16.5088C14.8394 16.3988 15.1464 16.2863 15.4543 16.1812C15.5 16.1674 15.5447 16.1544 15.5902 16.1406C15.5902 16.1325 15.5888 16.1241 15.5888 16.1165C15.5888 15.909 15.6505 15.7164 15.7548 15.554C15.735 15.5325 15.7136 15.5117 15.6944 15.4894Z" fill="#FF008E"/>
<path d="M12.9902 1.23264C12.9323 1.35226 12.8492 1.52949 12.7376 1.75079C12.6827 1.86165 12.621 1.98441 12.5536 2.11749C12.4855 2.24996 12.4036 2.39011 12.3175 2.54109C12.1411 2.8394 11.9594 3.19078 11.7193 3.54393C11.4865 3.90191 11.2441 4.29837 10.9481 4.6886C10.803 4.88576 10.6572 5.09168 10.502 5.29713C10.3418 5.49991 10.1787 5.70583 10.0086 5.91334C9.92385 6.01604 9.83803 6.12081 9.75225 6.22604C9.66187 6.32781 9.57201 6.43098 9.48009 6.5342C9.29686 6.73913 9.11424 6.95119 8.92402 7.15866C8.72579 7.35895 8.52648 7.56079 8.32632 7.76203C8.22517 7.86318 8.12809 7.96842 8.02286 8.06456L7.90801 8.17134C7.96117 8.29612 7.9914 8.43426 7.9914 8.5791C7.9914 8.65194 7.98325 8.72394 7.96933 8.79224C8.0297 8.82102 8.08895 8.84877 8.14862 8.879C8.45977 9.03655 8.7713 9.21739 9.09099 9.39106C9.41536 9.56145 9.72675 9.7572 10.0451 9.95337C10.2033 10.0514 10.363 10.1516 10.523 10.2523C10.6408 10.3273 10.7568 10.4084 10.8726 10.4895C11.048 10.3561 11.2658 10.2764 11.5014 10.2764C11.5681 10.2764 11.6329 10.2831 11.6966 10.2948L11.8099 10.0991C11.921 9.91277 12.0219 9.72021 12.1424 9.53946L12.869 8.45947L13.0514 8.19093C13.1126 8.10056 13.1807 8.0174 13.2454 7.93007C13.3762 7.75753 13.5096 7.58601 13.6427 7.41553C13.9104 7.07508 14.1685 6.72793 14.4643 6.4096C14.5247 6.33976 14.5868 6.27039 14.6482 6.20054C14.5172 6.02701 14.4392 5.81125 14.4392 5.57608C14.4392 5.2541 14.5848 4.96554 14.8153 4.77448L14.7262 4.58454C14.5652 4.20655 14.4142 3.82461 14.2602 3.44455C14.12 3.05793 13.9917 2.66709 13.8594 2.28042L13.6927 1.69037C13.6385 1.4942 13.5886 1.2955 13.5355 1.09933C13.5353 1.09881 13.5351 1.0983 13.5348 1.09778C13.3845 1.0773 13.2316 1.06131 13.0789 1.04851C13.0786 1.04828 13.0479 1.1125 12.9902 1.23264Z" fill="#FF008E"/>
<path d="M16.1715 15.1814C16.3106 15.1131 16.4658 15.0736 16.6318 15.0736C17.0222 15.0736 17.3613 15.2882 17.5402 15.6065C17.7484 15.5552 17.9557 15.5058 18.1584 15.4571C18.4481 15.3981 18.7354 15.353 19.0124 15.3015C19.2887 15.2523 19.5603 15.2071 19.8204 15.1629C20.0826 15.1213 20.3398 15.1038 20.5844 15.0752C20.8289 15.0484 21.0641 15.0238 21.2864 15.0038C21.5099 14.9822 21.7206 14.9592 21.9189 14.9565C22.0895 14.9498 22.2492 14.9451 22.3996 14.9417C22.4009 14.7295 22.4648 14.5339 22.5736 14.3706C22.5387 14.3459 22.5051 14.3217 22.4714 14.2971L22.1461 14.0589L21.8332 13.8052L21.212 13.2896C21.11 13.2029 21.0025 13.1208 20.904 13.0289L20.6097 12.752L20.0225 12.1969C19.8222 12.0162 19.6404 11.8169 19.4561 11.6202L18.7677 10.8786L18.637 10.7245L18.3772 10.4138L17.8654 9.78729C17.7771 9.68407 17.6983 9.57415 17.6197 9.46535L17.3801 9.13873C17.221 8.91936 17.0591 8.70374 16.9035 8.4839C16.7509 8.26105 16.6113 8.02996 16.4648 7.80243L16.0302 7.11891C15.928 6.9443 15.832 6.76454 15.7349 6.58585C15.6534 6.60685 15.569 6.61871 15.4812 6.61871C15.3143 6.61871 15.1567 6.57816 15.0164 6.50832C14.9608 6.5791 14.9053 6.65101 14.8495 6.72146C14.5764 7.04808 14.3407 7.40391 14.0977 7.75153C13.9763 7.92614 13.8544 8.10023 13.7305 8.27268C13.6691 8.36005 13.6042 8.44415 13.5478 8.53354L13.3785 8.80367L12.7014 9.88212C12.5581 10.1286 12.4188 10.3776 12.281 10.6283C12.4446 10.8127 12.5439 11.0529 12.5439 11.3184C12.5439 11.4416 12.5221 11.5597 12.4825 11.6686C12.6019 11.7631 12.72 11.8571 12.8395 11.9499L13.0652 12.1282C13.1396 12.1898 13.211 12.257 13.2842 12.3208C13.43 12.4492 13.575 12.579 13.7199 12.7074C13.865 12.8362 14.0094 12.9647 14.1543 13.0931C14.2978 13.2219 14.4455 13.3458 14.5749 13.4848C14.8414 13.7571 15.1056 14.0281 15.3675 14.2947C15.4322 14.3609 15.4969 14.4281 15.5618 14.4939C15.6273 14.5597 15.6917 14.6264 15.7508 14.6967C15.8712 14.8358 15.9918 14.9735 16.1112 15.1115C16.1321 15.1352 16.1506 15.1582 16.1715 15.1814Z" fill="#FF008E"/>
<path d="M13.5355 1.09933C13.6211 1.2842 13.709 1.46832 13.7921 1.65334L14.0421 2.21311C14.2171 2.58127 14.3991 2.94379 14.5683 3.31148C14.7537 3.67147 14.945 4.02992 15.1232 4.39086C15.1557 4.45039 15.1879 4.50893 15.2215 4.56701C15.3038 4.54601 15.3907 4.53364 15.4813 4.53364C15.6932 4.53364 15.8913 4.59734 16.0557 4.70618L16.7635 4.04933C17.0142 3.8301 17.27 3.61696 17.5225 3.40181C17.7818 3.19542 18.0451 2.99151 18.3079 2.78967C16.8875 1.91049 15.269 1.31856 13.5348 1.09778C13.5351 1.0983 13.5353 1.09881 13.5355 1.09933Z" fill="#FF008E"/>
<path d="M0.666134 12.7262C0.880585 12.6035 1.13066 12.4356 1.4226 12.2558C1.71551 12.0765 2.03773 11.86 2.39004 11.6293C2.47835 11.5712 2.56751 11.5122 2.65919 11.4521C2.74957 11.3895 2.83943 11.3246 2.93341 11.2595C3.11978 11.1311 3.31187 10.9981 3.51156 10.861C3.7051 10.7183 3.90442 10.5713 4.10677 10.4209C4.31471 10.2771 4.5173 10.1174 4.72453 9.95768C4.93045 9.79638 5.14607 9.63682 5.34899 9.46268C5.55515 9.29375 5.76491 9.12322 5.97575 8.95063C5.93136 8.83456 5.90615 8.70978 5.90615 8.57886C5.90615 8.5034 5.9143 8.42933 5.93052 8.35855C5.73468 8.25993 5.54498 8.16393 5.35359 8.08532C4.83112 7.85578 4.35629 7.63134 3.92274 7.46756C3.70735 7.3808 3.50443 7.2997 3.31806 7.22419C3.13267 7.1445 2.95652 7.0845 2.79921 7.0275C2.20582 6.81643 1.85384 6.68251 1.81222 6.66596C1.8559 6.67519 2.22429 6.75174 2.83722 6.8955C3.16614 6.96174 3.55698 7.08544 4.0089 7.21636C4.23329 7.28466 4.47821 7.34728 4.72467 7.43981C4.97273 7.5292 5.23298 7.62211 5.50513 7.71918C5.70698 7.78748 5.90882 7.86857 6.11474 7.95534C6.30467 7.70058 6.6072 7.53581 6.9492 7.53581C7.12474 7.53581 7.2919 7.57997 7.43674 7.6575L7.54427 7.56042C7.64857 7.46756 7.74349 7.36688 7.84413 7.27074C8.04236 7.07466 8.24059 6.88004 8.43643 6.6879C8.62721 6.48967 8.81743 6.29406 9.00521 6.09943C9.0976 6.00189 9.19158 5.90589 9.28327 5.80989C9.37242 5.71019 9.46074 5.61166 9.5475 5.51458C9.71981 5.31743 9.89489 5.12637 10.0653 4.9399C10.2306 4.74996 10.387 4.55736 10.5436 4.37351C10.6201 4.28159 10.6966 4.19014 10.7716 4.10136C10.8101 4.05566 10.8481 4.01197 10.8856 3.96735C10.9212 3.92258 10.957 3.87749 10.9919 3.83328C11.1334 3.65507 11.2687 3.4836 11.3994 3.31776C11.6662 2.99015 11.8899 2.67698 12.0969 2.40277C12.2003 2.26514 12.2963 2.13624 12.3859 2.01708C12.4728 1.89479 12.5515 1.78285 12.622 1.68123C12.7647 1.47845 12.88 1.32076 12.9579 1.21286C13.0366 1.10509 13.0789 1.04851 13.0789 1.04851C12.7228 1.01645 12.3638 1 11.9997 1C7.69689 1 3.92485 3.26352 1.80711 6.66465C0.661447 8.50358 0 10.6747 0 12.9999C0 13.0451 0 13.0903 0.00107811 13.1345C0.00107811 13.1345 0.240841 12.9799 0.666134 12.7262Z" fill="#FF008E"/>
<path d="M18.3079 2.78967C18.0771 3.02845 17.8445 3.26484 17.6105 3.49907C17.3836 3.73991 17.1599 3.98436 16.9317 4.22061L16.2992 4.93123C16.4393 5.10846 16.5236 5.33177 16.5236 5.57622C16.5236 5.86122 16.4093 6.11851 16.2239 6.30751L16.5299 6.81488L16.9654 7.47834C17.1124 7.69865 17.2502 7.92356 17.4042 8.13871C17.5618 8.35087 17.7125 8.56855 17.8679 8.78324L18.0982 9.10625C18.1748 9.21401 18.25 9.32295 18.3343 9.42364L18.8295 10.0461L19.1944 10.5154L19.3238 10.6659L19.8442 11.2672C20.0193 11.4654 20.1826 11.6749 20.3691 11.8639L20.9136 12.4441L21.1849 12.7358C21.2739 12.8345 21.3723 12.9238 21.466 13.0178L22.0349 13.577L22.3167 13.861L22.6119 14.1295C22.6424 14.1564 22.6721 14.1841 22.7023 14.2114C22.8911 14.0203 23.1531 13.9022 23.4422 13.9022C23.6287 13.9022 23.804 13.9511 23.9547 14.0378C23.9851 13.6963 24 13.3498 24 13.0001C23.9999 8.68705 21.7244 4.90521 18.3079 2.78967Z" fill="#FF008E"/>
<path d="M22.416 15.1188C22.2653 15.1399 22.1076 15.1604 21.9375 15.1814C21.7395 15.2025 21.5331 15.2431 21.3155 15.2846C21.0988 15.3272 20.8692 15.3693 20.6302 15.4104C20.393 15.4571 20.1439 15.491 19.8886 15.5507C19.6355 15.6123 19.3725 15.676 19.1014 15.7376C18.8313 15.8012 18.5524 15.8602 18.2702 15.9332C18.075 15.9903 17.8756 16.0494 17.6738 16.1084V16.1166C17.6738 16.362 17.5885 16.587 17.4463 16.765C17.8463 17.2677 18.1708 17.7982 18.487 18.2713C18.5673 18.392 18.6453 18.5095 18.7214 18.6255C18.7982 18.7416 18.8589 18.8629 18.9262 18.9769C19.0562 19.2047 19.1787 19.4225 19.2963 19.6264C19.4105 19.8303 19.523 20.0192 19.6143 20.2C19.7024 20.3832 19.7835 20.5512 19.8577 20.7027C20.0051 21.0052 20.1151 21.245 20.1926 21.4072C20.2599 21.5495 20.2989 21.6331 20.3073 21.6527C20.2957 21.6352 20.2467 21.5566 20.1622 21.4221C20.0675 21.2691 19.9248 21.0483 19.7498 20.7617C19.6621 20.6191 19.5659 20.4619 19.4602 20.2903C19.3503 20.1213 19.2217 19.9442 19.0921 19.7507C18.9608 19.5595 18.8222 19.3542 18.6747 19.139C18.5992 19.0321 18.5276 18.9197 18.4453 18.8108C18.3633 18.702 18.2786 18.5906 18.193 18.4776C18.0214 18.2501 17.8433 18.0139 17.6575 17.7696C17.566 17.6468 17.473 17.5225 17.3654 17.4023C17.2718 17.2884 17.1755 17.1728 17.0784 17.0573C16.9427 17.122 16.7912 17.1589 16.6312 17.1589C16.2707 17.1589 15.9532 16.9771 15.7665 16.6988C15.7213 16.7142 15.6774 16.7292 15.6336 16.7445C15.338 16.8565 15.0394 16.9633 14.7403 17.0742C14.4402 17.1856 14.1448 17.3167 13.8476 17.4367C13.5475 17.5538 13.2586 17.6976 12.9642 17.826C12.8182 17.8922 12.6725 17.9574 12.5264 18.0231C12.3839 18.0925 12.2403 18.1634 12.0991 18.2327C11.8141 18.373 11.5304 18.5084 11.259 18.6604C10.987 18.8108 10.71 18.9428 10.4481 19.0949C10.1862 19.2454 9.92792 19.3926 9.6763 19.5385C9.63167 19.5653 9.58644 19.5929 9.54224 19.6196C9.57584 19.7239 9.59563 19.8343 9.59563 19.9483C9.59563 19.974 9.59309 19.9997 9.59178 20.0249C9.84931 20.1326 10.1066 20.2379 10.3649 20.3263L10.9855 20.5523C11.1905 20.6334 11.4029 20.7006 11.6132 20.7674L12.2458 20.9729C12.3514 21.0067 12.4568 21.0421 12.5634 21.0736L12.884 21.1618C13.0985 21.2183 13.3121 21.2784 13.5262 21.339L13.8459 21.4305L14.1702 21.507L14.8201 21.6575C15.0368 21.7072 15.2524 21.7627 15.4714 21.8012C15.9092 21.8824 16.3447 21.9763 16.7851 22.0468L18.1102 22.2486C18.5549 22.2984 18.9996 22.3503 19.4453 22.4092C18.9977 22.4201 18.5481 22.4231 18.0981 22.4231C17.8724 22.4246 17.6486 22.4046 17.4242 22.3943L16.7486 22.3574C16.5227 22.3511 16.3 22.3132 16.0754 22.2911L15.4025 22.2136C15.1778 22.1924 14.9552 22.1545 14.7328 22.114L14.0641 21.9984L13.7309 21.9378L13.3995 21.8639C13.1792 21.8151 12.9592 21.7643 12.7389 21.7119L12.4076 21.6333C12.2988 21.6057 12.1909 21.5716 12.0821 21.5418L11.4289 21.3539C10.9909 21.239 10.5647 21.0736 10.1346 20.9251C9.86248 20.8364 9.60195 20.733 9.34358 20.6274C9.15819 20.8442 8.88374 20.9834 8.57775 20.9904C8.52914 21.2636 8.48629 21.5358 8.44082 21.809L8.38997 22.1248L8.34918 22.4432L8.26472 23.0805C8.21287 23.5052 8.17687 23.9329 8.12601 24.3602C9.34077 24.7751 10.6444 25 11.9996 25C14.8126 25 17.4008 24.0315 19.4466 22.4092C19.4467 22.4092 19.4464 22.4092 19.4466 22.4092C19.7457 22.172 20.0356 21.9205 20.3101 21.6565C21.8997 20.1308 23.0679 18.1728 23.6285 15.9719C23.5688 15.9822 23.5057 15.9879 23.442 15.9879C22.9254 15.9877 22.498 15.6112 22.416 15.1188Z" fill="#FF008E"/>
<path d="M8.10354 23.0695L8.11868 22.423L8.13044 22.099L8.19869 21.1279C8.20301 21.0632 8.21107 20.9996 8.21801 20.9358C8.0734 20.886 7.94248 20.8059 7.83363 20.7028C7.76534 20.7469 7.69803 20.7921 7.63334 20.8373C7.43511 20.9759 7.24513 21.1096 7.06588 21.2368C6.97442 21.2994 6.88611 21.3611 6.80019 21.4211C6.71572 21.4837 6.63351 21.5438 6.55504 21.603C6.3958 21.7211 6.24642 21.8315 6.10982 21.9331C6.03998 21.9829 5.9729 22.0318 5.90953 22.078C5.84808 22.1267 5.78883 22.173 5.73314 22.2172C5.31183 22.5484 5.05346 22.742 5.02529 22.7615C5.05097 22.7338 5.26997 22.4995 5.64506 22.1165C5.841 21.9064 6.10153 21.6785 6.39374 21.4062C6.67982 21.1268 7.0356 20.8486 7.41205 20.5302C7.4742 20.4782 7.5395 20.4285 7.60311 20.3772C7.54404 20.2462 7.51058 20.1015 7.51058 19.9485C7.51058 19.9068 7.51372 19.8653 7.5185 19.8248C7.14674 19.6496 6.78744 19.4493 6.42365 19.2593L6.12351 19.0985C6.02522 19.0426 5.9302 18.9825 5.83289 18.9245L5.25103 18.5738L4.96041 18.3976L4.67902 18.2086C4.48909 18.0844 4.30365 17.9549 4.11719 17.8286C3.92819 17.7033 3.74749 17.5667 3.56697 17.4311L3.02543 17.0234C2.84389 16.8904 2.67467 16.7384 2.50114 16.5946L1.982 16.1602C1.80946 16.0154 1.64948 15.8531 1.48387 15.7017C1.31924 15.5466 1.15373 15.3936 0.991404 15.2369C0.676407 14.9176 0.369191 14.591 0.0644129 14.2593C0.430784 17.7628 2.30314 20.8176 5.0229 22.7639C5.96503 23.4382 7.00815 23.979 8.12601 24.3602C8.1143 23.9303 8.09655 23.4994 8.10354 23.0695Z" fill="#FF008E"/>
<path d="M0.594154 14.6761C0.770543 14.8153 0.941775 14.96 1.12023 15.0971C1.48144 15.3616 1.83014 15.638 2.19215 15.8973L2.73852 16.2834C2.92152 16.4092 3.09875 16.5448 3.28897 16.661L3.84612 17.0282C4.03151 17.1508 4.21535 17.2747 4.4089 17.385C4.59883 17.4997 4.78989 17.6121 4.97889 17.7291L5.26281 17.9027L5.5525 18.065L6.13411 18.3885C6.23143 18.4413 6.32789 18.4984 6.4261 18.5482L6.72295 18.6987C7.07957 18.8794 7.43057 19.0694 7.79418 19.2353C7.97286 19.0453 8.22186 18.9226 8.50133 18.9087C8.56011 18.5806 8.63225 18.255 8.69956 17.9273C8.77817 17.5011 8.90318 17.085 9.00963 16.6645C9.06077 16.4535 9.12977 16.2486 9.19141 16.0402L9.38135 15.4177C9.52057 15.0079 9.66297 14.5976 9.81813 14.1919L10.0615 13.5886C10.1424 13.3867 10.2224 13.1855 10.3165 12.9873C10.46 12.6724 10.599 12.349 10.7499 12.0408C10.5702 11.8529 10.4591 11.5991 10.4591 11.3188C10.4591 11.2125 10.4753 11.1092 10.5053 11.0122C10.3954 10.9331 10.2848 10.8545 10.1728 10.781C10.0162 10.6814 9.86233 10.5818 9.70825 10.4832C9.40118 10.284 9.10226 10.0806 8.79495 9.90649C8.48834 9.72827 8.19617 9.54396 7.89374 9.37864C7.83374 9.34578 7.77613 9.31442 7.71651 9.28217C7.52657 9.49062 7.25329 9.62163 6.94889 9.62163C6.75736 9.62163 6.57919 9.56979 6.4246 9.47932C5.98238 9.82695 5.54237 10.171 5.09945 10.4683C4.66732 10.7846 4.22491 11.0548 3.809 11.3152C3.38253 11.5601 2.98893 11.8045 2.60423 11.9909C2.41401 12.0889 2.23223 12.1819 2.05861 12.2713C1.88606 12.3607 1.713 12.4299 1.55691 12.5029C1.2406 12.6478 0.96615 12.7715 0.731918 12.8573C0.268469 13.0391 0.00107811 13.1345 0.00107811 13.1345C0.00468745 13.5145 0.0264914 13.8896 0.0644129 14.2593C0.242677 14.3963 0.418234 14.5375 0.594154 14.6761Z" fill="#FF008E"/>
</svg>
