<svg width="48" height="48" viewBox="0 0 48 48" fill="none" xmlns="http://www.w3.org/2000/svg">
<path d="M24 14.1818C18.5455 14.1818 14.1818 18.5455 14.1818 24C14.1818 29.4545 18.5455 33.8182 24 33.8182C29.4545 33.8182 33.8182 29.4545 33.8182 24C33.8182 18.5455 29.4545 14.1818 24 14.1818ZM29.0182 24.8727L22.4727 29.2364C22.2545 29.3455 22.1455 29.4545 21.8182 29.4545C21.1636 29.4545 20.7273 29.0182 20.7273 28.3636V19.6364C20.7273 18.9818 21.1636 18.5455 21.8182 18.5455C22.0364 18.5455 22.2545 18.6545 22.4727 18.7636L29.0182 23.1273C29.3455 23.3455 29.4545 23.6727 29.4545 24C29.4545 24.3273 29.2364 24.7636 29.0182 24.8727Z" fill="#FF008E"/>
<path d="M24 0C10.6909 0 0 10.6909 0 24C0 37.3091 10.6909 48 24 48C37.3091 48 48 37.3091 48 24C48 10.6909 37.3091 0 24 0ZM24 38.1818C16.1455 38.1818 9.81818 31.8545 9.81818 24C9.81818 16.1455 16.1455 9.81818 24 9.81818C31.8545 9.81818 38.1818 16.1455 38.1818 24C38.1818 31.8545 31.8545 38.1818 24 38.1818Z" fill="#FF008E"/>
</svg>
