<svg width="48" height="48" viewBox="0 0 48 48" fill="none" xmlns="http://www.w3.org/2000/svg">
<path d="M24 0C10.6909 0 0 10.6909 0 24C0 37.3091 10.6909 48 24 48C37.3091 48 48 37.3091 48 24C48 10.6909 37.3091 0 24 0ZM21.8182 20.7273C21.8182 21.3818 21.3818 21.8182 20.7273 21.8182H18.5455C17.8909 21.8182 17.4545 21.3818 17.4545 20.7273V19.9636C17.4545 19.6364 17.2364 19.4182 16.9091 19.4182C16.6909 19.4182 16.5818 19.5273 16.4727 19.6364C15.7091 20.9455 15.2727 22.4727 15.2727 24C15.2727 27.8182 17.6727 31.0909 21.1636 32.1818C21.6 32.2909 21.8182 32.7273 21.8182 33.1636V35.4545C21.8182 36.2182 21.1636 36.7636 20.4 36.5455C14.9455 35.0182 10.9091 29.8909 10.9091 24C10.9091 21.0545 11.8909 18.3273 13.5273 16.1455C13.7455 15.9273 13.6364 15.6 13.4182 15.3818C13.3091 15.2727 13.2 15.2727 13.0909 15.2727H12C11.3455 15.2727 10.9091 14.8364 10.9091 14.1818V12C10.9091 11.3455 11.3455 10.9091 12 10.9091H20.7273C21.3818 10.9091 21.8182 11.3455 21.8182 12V20.7273ZM34.4727 31.8545C34.2545 32.0727 34.3636 32.4 34.5818 32.6182C34.6909 32.7273 34.8 32.7273 34.9091 32.7273H36C36.6545 32.7273 37.0909 33.1636 37.0909 33.8182V36C37.0909 36.6545 36.6545 37.0909 36 37.0909H27.2727C26.6182 37.0909 26.1818 36.6545 26.1818 36V27.2727C26.1818 26.6182 26.6182 26.1818 27.2727 26.1818H29.4545C30.1091 26.1818 30.5455 26.6182 30.5455 27.2727V28.0364C30.5455 28.3636 30.7636 28.5818 31.0909 28.5818C31.3091 28.5818 31.4182 28.4727 31.5273 28.3636C32.2909 27.0545 32.7273 25.5273 32.7273 24C32.7273 20.1818 30.3273 16.9091 26.8364 15.8182C26.4 15.7091 26.1818 15.2727 26.1818 14.8364V12.5455C26.1818 11.7818 26.8364 11.2364 27.6 11.4545C33.0545 12.9818 37.0909 18.1091 37.0909 24C37.0909 26.9455 36.1091 29.6727 34.4727 31.8545Z" fill="#FF008E"/>
</svg>
