<svg width="48" height="48" viewBox="0 0 48 48" fill="none" xmlns="http://www.w3.org/2000/svg">
<path d="M24 0C10.6909 0 0 10.6909 0 24C0 37.3091 10.6909 48 24 48C37.3091 48 48 37.3091 48 24C48 10.6909 37.3091 0 24 0ZM24 34.9091C22.8 34.9091 21.8182 33.9273 21.8182 32.7273C21.8182 31.5273 22.8 30.5455 24 30.5455C25.2 30.5455 26.1818 31.5273 26.1818 32.7273C26.1818 33.9273 25.2 34.9091 24 34.9091ZM31.6364 26.6182L30.1091 28.1455C29.6727 28.5818 29.0182 28.5818 28.5818 28.1455C27.3818 26.9455 25.7455 26.2909 24 26.2909C22.2545 26.2909 20.6182 27.0545 19.4182 28.1455C18.9818 28.5818 18.3273 28.5818 17.8909 28.1455L16.3636 26.6182C15.9273 26.1818 15.9273 25.5273 16.3636 25.0909C18.3273 23.1273 21.0545 21.9273 24 21.9273C26.9455 21.9273 29.6727 23.1273 31.6364 25.0909C32.0727 25.4182 32.0727 26.1818 31.6364 26.6182ZM37.8545 20.4L36.3273 21.9273C35.8909 22.3636 35.2364 22.3636 34.8 21.9273C32.0727 19.2 28.2545 17.4545 24 17.4545C19.7455 17.4545 15.9273 19.2 13.2 21.9273C12.7636 22.3636 12.1091 22.3636 11.6727 21.9273L10.1455 20.4C9.92727 20.1818 9.81818 19.9636 9.81818 19.6364C9.81818 19.3091 9.92727 19.0909 10.1455 18.8727C13.7455 15.2727 18.5455 13.0909 24 13.0909C29.4545 13.0909 34.3636 15.2727 37.8545 18.8727C38.0727 19.0909 38.1818 19.3091 38.1818 19.6364C38.1818 19.8545 38.0727 20.1818 37.8545 20.4Z" fill="#FF008E"/>
</svg>
